<?xml version="1.0" encoding="UTF-8"?>
<svg version="1.1" xmlns="http://www.w3.org/2000/svg" width="525" height="556">
<path d="M0 0 C173.25 0 346.5 0 525 0 C525 183.48 525 366.96 525 556 C351.75 556 178.5 556 0 556 C0 372.52 0 189.04 0 0 Z " fill="#000000" transform="translate(0,0)"/>
<path d="M0 0 C1.98 0 3.96 0 6 0 C6 0.66 6 1.32 6 2 C7.33044846 2.11149132 7.33044846 2.11149132 8.68777466 2.22523499 C12.67863975 3.15874111 14.12464965 4.50756638 16.99560547 7.39624023 C17.45489944 7.85159149 17.91419342 8.30694275 18.3874054 8.77609253 C19.89307669 10.27508378 21.38010831 11.7911746 22.8671875 13.30859375 C23.9114136 14.35707197 24.95660473 15.40458988 26.00271606 16.45118713 C28.1873221 18.64194753 30.36342106 20.84070083 32.53320312 23.04614258 C35.31902057 25.87737153 38.12000091 28.69297425 40.92675591 31.50343227 C43.08248908 33.66358527 45.23274026 35.82912245 47.38107681 37.99662971 C48.41268727 39.03713554 49.44538886 40.07656071 50.4791832 41.11489677 C51.91821301 42.56293306 53.34968762 44.01846592 54.78076172 45.47436523 C56.0060408 46.71560402 56.0060408 46.71560402 57.256073 47.98191833 C59 50 59 50 59 52 C59.55171875 52.226875 60.1034375 52.45375 60.671875 52.6875 C63.68692417 54.38725926 65.81230369 56.54804816 68.25 59 C69.14203125 59.886875 70.0340625 60.77375 70.953125 61.6875 C73 64 73 64 73 66 C73.57975586 66.25523438 74.15951172 66.51046875 74.75683594 66.7734375 C77.23015312 68.12584777 78.89602109 69.63732524 80.890625 71.625 C81.95410156 72.68460938 81.95410156 72.68460938 83.0390625 73.765625 C83.76867187 74.50296875 84.49828125 75.2403125 85.25 76 C85.99507812 76.73734375 86.74015625 77.4746875 87.5078125 78.234375 C88.21164063 78.94078125 88.91546875 79.6471875 89.640625 80.375 C90.28547852 81.02210937 90.93033203 81.66921875 91.59472656 82.3359375 C93 84 93 84 93 86 C93.55171875 86.226875 94.1034375 86.45375 94.671875 86.6875 C97.68692417 88.38725926 99.81230369 90.54804816 102.25 93 C103.58804688 94.3303125 103.58804688 94.3303125 104.953125 95.6875 C107 98 107 98 107 100 C107.57975586 100.25523437 108.15951172 100.51046875 108.75683594 100.7734375 C111.23015312 102.12584777 112.89602109 103.63732524 114.890625 105.625 C115.95410156 106.68460938 115.95410156 106.68460938 117.0390625 107.765625 C117.76867187 108.50296875 118.49828125 109.2403125 119.25 110 C119.99507812 110.73734375 120.74015625 111.4746875 121.5078125 112.234375 C122.21164063 112.94078125 122.91546875 113.6471875 123.640625 114.375 C124.28547852 115.02210938 124.93033203 115.66921875 125.59472656 116.3359375 C127 118 127 118 127 120 C127.66 120 128.32 120 129 120 C129 120.66 129 121.32 129 122 C132.90525274 119.85364881 135.82900976 117.4126625 138.96470642 114.25561523 C139.43843722 113.78147658 139.91216803 113.30733793 140.40025431 112.81883144 C141.97858483 111.23678523 143.54964773 109.64771751 145.12084961 108.05859375 C146.25424078 106.91972435 147.38809787 105.78131847 148.52238464 104.64334106 C150.9604137 102.19561394 153.39534823 99.74486391 155.82798576 97.29177856 C159.67607728 93.41183222 163.53235433 89.54009201 167.39002991 85.66967773 C176.96995206 76.05569423 186.54053894 66.43243191 196.10626221 56.80432129 C203.54218945 49.31992749 210.98128396 41.83875181 218.43099791 34.36807728 C222.26511486 30.52244629 226.09218489 26.66997892 229.91410244 22.81222534 C232.29472478 20.41238982 234.68160135 18.01885119 237.07025337 15.62701035 C238.17500096 14.51824923 239.27716617 13.40690804 240.37651062 12.29278946 C241.88022248 10.76960516 243.39300129 9.25602018 244.90830994 7.74438477 C246.17340849 6.47124168 246.17340849 6.47124168 247.4640646 5.17237854 C252.93472807 0.48600052 257.08916994 -0.35745673 264 0 C264 0.66 264 1.32 264 2 C265.05238106 1.83489677 265.05238106 1.83489677 266.12602234 1.66645813 C270.23302251 2.14309945 272.20819325 4.50858832 274.98364258 7.33666992 C275.55983337 7.90409912 276.13602417 8.47152832 276.72967529 9.05615234 C278.63073321 10.93520453 280.51291821 12.8319598 282.39453125 14.73046875 C283.70944869 16.04201844 285.02510763 17.35282511 286.34147644 18.66291809 C289.09743567 21.41150433 291.84414465 24.16893515 294.5847168 26.93286133 C298.09979713 30.47642856 301.63684641 33.99707631 305.18112659 37.51140881 C307.90190916 40.2141306 310.61067828 42.92864019 313.31595421 45.64687538 C314.61565737 46.94991587 315.91909031 48.24924702 317.22626686 49.54479027 C319.05099199 51.35682792 320.8589369 53.18410286 322.66333008 55.01635742 C323.20716843 55.55007462 323.75100677 56.08379181 324.31132507 56.63368225 C326.66474925 59.05493264 327.93754847 60.46188372 328.33354187 63.87397766 C328.22347305 64.57556503 328.11340424 65.2771524 328 66 C328.66 66 329.32 66 330 66 C330.62404731 72.98932986 329.15314065 76.44042862 325 82 C322.4008865 84.97801933 319.62736762 87.75324467 316.81323242 90.52734375 C316.00295593 91.33805832 315.19267944 92.14877289 314.35784912 92.98405457 C311.69744312 95.64238283 309.02659452 98.28994706 306.35546875 100.9375 C304.50107939 102.78628983 302.64735447 104.63574634 300.79426575 106.48583984 C296.42656284 110.84425301 292.0512759 115.19496813 287.67314941 119.54290771 C282.68530181 124.4971152 277.70606443 129.4599386 272.72749937 134.42347145 C262.49449169 144.62519976 252.25051585 154.81586446 242 165 C244.97 165.33 247.94 165.66 251 166 C251 171.61 251 177.22 251 183 C245.39 183 239.78 183 234 183 C234 186.3 234 189.6 234 193 C238.95 193 243.9 193 249 193 C249 198.61 249 204.22 249 210 C244.05 210 239.1 210 234 210 C234 213.63 234 217.26 234 221 C239.61 221 245.22 221 251 221 C251 226.61 251 232.22 251 238 C250.01 238.33 249.02 238.66 248 239 C248.4846875 239.47421387 248.969375 239.94842773 249.46875 240.43701172 C251.65099737 242.57781737 253.82555737 244.72626868 256 246.875 C256.763125 247.62136719 257.52625 248.36773437 258.3125 249.13671875 C259.034375 249.85214844 259.75625 250.56757813 260.5 251.3046875 C261.1703125 251.96452637 261.840625 252.62436523 262.53125 253.30419922 C264 255 264 255 264 257 C264.55171875 257.226875 265.1034375 257.45375 265.671875 257.6875 C268.68692417 259.38725926 270.81230369 261.54804816 273.25 264 C274.14203125 264.886875 275.0340625 265.77375 275.953125 266.6875 C278 269 278 269 278 271 C278.56576248 271.24208191 279.13152496 271.48416382 279.71443176 271.73358154 C282.45184247 273.25036296 284.34017154 275.06388886 286.5690918 277.26269531 C287.46649582 278.14411194 288.36389984 279.02552856 289.28849792 279.93365479 C290.25921636 280.89799711 291.22944493 281.86283275 292.19921875 282.828125 C293.19994341 283.81987843 294.20074309 284.81155617 295.20161438 285.80316162 C297.29577131 287.88085054 299.38551341 289.96287424 301.47290039 292.04736328 C304.14443295 294.71350722 306.83174842 297.36311322 309.52330303 300.00902176 C311.59500496 302.05094265 313.65532472 304.10406386 315.71268654 306.16042328 C316.69855976 307.14209809 317.68854364 308.11966297 318.68271446 309.09293365 C320.07331251 310.45659583 321.44660098 311.83784147 322.8190918 313.21972656 C323.60422653 313.99979065 324.38936127 314.77985474 325.19828796 315.58355713 C327.3106079 318.41658503 327.69220104 320.51671458 328 324 C328.66 324 329.32 324 330 324 C330 325.98 330 327.96 330 330 C329.34 330 328.68 330 328 330 C328 331.65 328 333.3 328 335 C327.01 335.33 326.02 335.66 325 336 C324.87293671 336.57280701 324.74587341 337.14561401 324.61495972 337.73577881 C323.69840074 341.1104588 321.61517338 342.76659006 319.16064453 345.22753906 C318.40687531 345.98919373 318.40687531 345.98919373 317.63787842 346.76623535 C315.97698522 348.44031852 314.30537445 350.10320585 312.6328125 351.765625 C311.47513606 352.92532214 310.31790529 354.08546431 309.16110229 355.24603271 C306.73643805 357.67511869 304.30643282 360.09869796 301.87255859 362.51855469 C298.74944934 365.62455325 295.64002561 368.7438501 292.53445625 371.86737442 C290.14815175 374.26450443 287.75476661 376.65446153 285.35915756 379.04228973 C284.20946712 380.18997575 283.06200981 381.33990322 281.9168129 382.49207306 C280.31772514 384.09875694 278.70937614 385.69554635 277.09814453 387.29003906 C276.18404816 388.20174866 275.26995178 389.11345825 274.32815552 390.05279541 C272 392 272 392 269 392 C268.67 392.99 268.34 393.98 268 395 C264.55152617 397.52003857 261.13426005 397.15901 257 397 C257 396.34 257 395.68 257 395 C256.11303436 394.92567245 255.22606873 394.85134491 254.31222534 394.77476501 C250.32136025 393.84125889 248.87535035 392.49243362 246.00439453 389.60375977 C245.54510056 389.14840851 245.08580658 388.69305725 244.6125946 388.22390747 C243.10692331 386.72491622 241.61989169 385.2088254 240.1328125 383.69140625 C239.0885864 382.64292803 238.04339527 381.59541012 236.99728394 380.54881287 C234.8126779 378.35805247 232.63657894 376.15929917 230.46679688 373.95385742 C227.68097943 371.12262847 224.87999909 368.30702575 222.07324409 365.49656773 C219.91751092 363.33641473 217.76725974 361.17087755 215.61892319 359.00337029 C214.58731273 357.96286446 213.55461114 356.92343929 212.5208168 355.88510323 C211.08178699 354.43706694 209.65031238 352.98153408 208.21923828 351.52563477 C207.40238556 350.69814224 206.58553284 349.87064972 205.743927 349.01808167 C204 347 204 347 204 345 C203.44828125 344.773125 202.8965625 344.54625 202.328125 344.3125 C199.31307583 342.61274074 197.18769631 340.45195184 194.75 338 C193.85796875 337.113125 192.9659375 336.22625 192.046875 335.3125 C190 333 190 333 190 331 C189.13036621 330.61714844 189.13036621 330.61714844 188.24316406 330.2265625 C185.76984688 328.87415223 184.10397891 327.36267476 182.109375 325.375 C181.40039062 324.66859375 180.69140625 323.9621875 179.9609375 323.234375 C179.23132813 322.49703125 178.50171875 321.7596875 177.75 321 C177.00492188 320.26265625 176.25984375 319.5253125 175.4921875 318.765625 C174.78835938 318.05921875 174.08453125 317.3528125 173.359375 316.625 C172.71452148 315.97789062 172.06966797 315.33078125 171.40527344 314.6640625 C170 313 170 313 170 311 C169.44828125 310.773125 168.8965625 310.54625 168.328125 310.3125 C165.31307583 308.61274074 163.18769631 306.45195184 160.75 304 C159.85796875 303.113125 158.9659375 302.22625 158.046875 301.3125 C156 299 156 299 156 297 C155.42024414 296.74476563 154.84048828 296.48953125 154.24316406 296.2265625 C151.76984688 294.87415223 150.10397891 293.36267476 148.109375 291.375 C147.40039062 290.66859375 146.69140625 289.9621875 145.9609375 289.234375 C145.23132813 288.49703125 144.50171875 287.7596875 143.75 287 C143.00492188 286.26265625 142.25984375 285.5253125 141.4921875 284.765625 C140.78835938 284.05921875 140.08453125 283.3528125 139.359375 282.625 C138.71452148 281.97789062 138.06966797 281.33078125 137.40527344 280.6640625 C136 279 136 279 136 277 C135.34 277 134.68 277 134 277 C134 276.34 134 275.68 134 275 C132.906875 275.639375 131.81375 276.27875 130.6875 276.9375 C128.4161709 278.26601325 126.52560108 279.15813297 124 280 C123.67 280.99 123.34 281.98 123 283 C122.34 283 121.68 283 121 283 C120.67 283.99 120.34 284.98 120 286 C119.34 286 118.68 286 118 286 C117.67 286.99 117.34 287.98 117 289 C116.34 289 115.68 289 115 289 C115 289.66 115 290.32 115 291 C114.34 291 113.68 291 113 291 C112.67 291.99 112.34 292.98 112 294 C111.34 294 110.68 294 110 294 C109.67 294.99 109.34 295.98 109 297 C108.34 297 107.68 297 107 297 C106.67 297.99 106.34 298.98 106 300 C105.34 300 104.68 300 104 300 C103.67 300.99 103.34 301.98 103 303 C102.34 303 101.68 303 101 303 C101 303.66 101 304.32 101 305 C100.34 305 99.68 305 99 305 C98.67 305.99 98.34 306.98 98 308 C97.34 308 96.68 308 96 308 C95.67 308.99 95.34 309.98 95 311 C94.34 311 93.68 311 93 311 C92.67 311.99 92.34 312.98 92 314 C91.34 314 90.68 314 90 314 C89.67 314.99 89.34 315.98 89 317 C88.34 317 87.68 317 87 317 C87 317.66 87 318.32 87 319 C86.34 319 85.68 319 85 319 C84.67 319.99 84.34 320.98 84 322 C83.34 322 82.68 322 82 322 C81.67 322.99 81.34 323.98 81 325 C80.34 325 79.68 325 79 325 C78.67 325.99 78.34 326.98 78 328 C77.34 328 76.68 328 76 328 C75.67 328.99 75.34 329.98 75 331 C74.34 331 73.68 331 73 331 C73 331.66 73 332.32 73 333 C72.34 333 71.68 333 71 333 C70.67 333.99 70.34 334.98 70 336 C69.34 336 68.68 336 68 336 C67.67 336.99 67.34 337.98 67 339 C66.34 339 65.68 339 65 339 C64.67 339.99 64.34 340.98 64 342 C63.34 342 62.68 342 62 342 C61.67 342.99 61.34 343.98 61 345 C60.34 345 59.68 345 59 345 C59 345.66 59 346.32 59 347 C58.34 347 57.68 347 57 347 C56.67 347.99 56.34 348.98 56 350 C55.34 350 54.68 350 54 350 C53.67 350.99 53.34 351.98 53 353 C52.34 353 51.68 353 51 353 C50.67 353.99 50.34 354.98 50 356 C49.34 356 48.68 356 48 356 C47.731875 356.639375 47.46375 357.27875 47.1875 357.9375 C46 360 46 360 43 361 C42.67 361.99 42.34 362.98 42 364 C41.34 364 40.68 364 40 364 C39.67 364.99 39.34 365.98 39 367 C38.34 367 37.68 367 37 367 C36.67 367.99 36.34 368.98 36 370 C35.34 370 34.68 370 34 370 C33.731875 370.639375 33.46375 371.27875 33.1875 371.9375 C32 374 32 374 29 375 C28.67 375.99 28.34 376.98 28 378 C27.34 378 26.68 378 26 378 C25.67 378.99 25.34 379.98 25 381 C24.34 381 23.68 381 23 381 C22.67 381.99 22.34 382.98 22 384 C21.34 384 20.68 384 20 384 C19.731875 384.639375 19.46375 385.27875 19.1875 385.9375 C18 388 18 388 15 389 C14.3162955 390.32467746 13.65035814 391.65863633 13 393 C10 395 10 395 6 395 C6 395.66 6 396.32 6 397 C3.69 397 1.38 397 -1 397 C-1 396.34 -1 395.68 -1 395 C-1.75078827 394.8939595 -2.50157654 394.78791901 -3.27511597 394.67866516 C-6.21940124 393.94535548 -7.39595263 393.17350289 -9.59814453 391.14135742 C-10.28781311 390.50692719 -10.97748169 389.87249695 -11.68804932 389.21884155 C-16.31871929 384.77466243 -20.88991706 380.27484811 -25.4296875 375.73828125 C-26.51198367 374.65920534 -27.59435192 373.58020171 -28.67678833 372.50126648 C-30.9291971 370.25480433 -33.17957176 368.00632718 -35.42871094 365.7565918 C-38.30859072 362.87660974 -41.1953307 360.00360932 -44.08381462 357.13226032 C-46.31427745 354.91290961 -48.54018701 352.6890353 -50.76483536 350.46385765 C-51.82774656 349.40212438 -52.89227483 348.34200737 -53.95846176 347.28356361 C-55.44438769 345.80743727 -56.92384176 344.32510735 -58.40185547 342.84106445 C-59.24376434 342.0005806 -60.08567322 341.16009674 -60.95309448 340.29414368 C-64.19417052 336.66159003 -65 334.92841044 -65 330 C-65.66 330 -66.32 330 -67 330 C-67 328.02 -67 326.04 -67 324 C-66.34 324 -65.68 324 -65 324 C-64.896875 323.071875 -64.79375 322.14375 -64.6875 321.1875 C-63.99468505 317.97535795 -63.6120831 316.88069983 -61 315 C-60.34 315 -59.68 315 -59 315 C-58.731875 314.360625 -58.46375 313.72125 -58.1875 313.0625 C-57 311 -57 311 -54 310 C-53.67 309.01 -53.34 308.02 -53 307 C-52.34 307 -51.68 307 -51 307 C-50.67 306.01 -50.34 305.02 -50 304 C-49.34 304 -48.68 304 -48 304 C-47.67 303.01 -47.34 302.02 -47 301 C-46.34 301 -45.68 301 -45 301 C-44.731875 300.360625 -44.46375 299.72125 -44.1875 299.0625 C-43 297 -43 297 -40 296 C-39.67 295.01 -39.34 294.02 -39 293 C-38.34 293 -37.68 293 -37 293 C-36.67 292.01 -36.34 291.02 -36 290 C-35.34 290 -34.68 290 -34 290 C-33.67 289.01 -33.34 288.02 -33 287 C-32.34 287 -31.68 287 -31 287 C-30.731875 286.360625 -30.46375 285.72125 -30.1875 285.0625 C-29 283 -29 283 -26 282 C-25.67 281.01 -25.34 280.02 -25 279 C-24.34 279 -23.68 279 -23 279 C-22.67 278.01 -22.34 277.02 -22 276 C-21.34 276 -20.68 276 -20 276 C-19.67 275.01 -19.34 274.02 -19 273 C-18.34 273 -17.68 273 -17 273 C-17 272.34 -17 271.68 -17 271 C-16.34 271 -15.68 271 -15 271 C-14.67 270.01 -14.34 269.02 -14 268 C-13.34 268 -12.68 268 -12 268 C-11.67 267.01 -11.34 266.02 -11 265 C-10.34 265 -9.68 265 -9 265 C-8.67 264.01 -8.34 263.02 -8 262 C-7.34 262 -6.68 262 -6 262 C-5.67 261.01 -5.34 260.02 -5 259 C-4.34 259 -3.68 259 -3 259 C-3 258.34 -3 257.68 -3 257 C-2.34 257 -1.68 257 -1 257 C-0.67 256.01 -0.34 255.02 0 254 C0.66 254 1.32 254 2 254 C2.33 253.01 2.66 252.02 3 251 C3.66 251 4.32 251 5 251 C5.33 250.01 5.66 249.02 6 248 C6.66 248 7.32 248 8 248 C8.33 247.01 8.66 246.02 9 245 C9.66 245 10.32 245 11 245 C11 244.34 11 243.68 11 243 C11.66 243 12.32 243 13 243 C13.33 242.01 13.66 241.02 14 240 C14.66 240 15.32 240 16 240 C16.33 239.01 16.66 238.02 17 237 C17.66 237 18.32 237 19 237 C19 236.34 19 235.68 19 235 C19.59425781 235.2165625 20.18851562 235.433125 20.80078125 235.65625 C28.60954597 238.27941202 35.75738966 239.2727831 43.75 236.875 C53.32245247 231.35243127 57.4126521 224.40291346 60.3125 213.75 C62.74839929 200.48262621 61.26014533 186.64592736 54.3125 174.9375 C50.12800289 169.2773616 44.89066555 166.65273093 38.125 165.125 C34.75981952 164.84794699 31.59255939 165.26635525 28.25 165.6875 C23.34381545 166.23187554 23.34381545 166.23187554 20.3125 164.1875 C19 162 19 162 19 160 C18.42024414 159.74476563 17.84048828 159.48953125 17.24316406 159.2265625 C14.76984688 157.87415223 13.10397891 156.36267476 11.109375 154.375 C10.40039062 153.66859375 9.69140625 152.9621875 8.9609375 152.234375 C8.23132813 151.49703125 7.50171875 150.7596875 6.75 150 C6.00492187 149.26265625 5.25984375 148.5253125 4.4921875 147.765625 C3.78835937 147.05921875 3.08453125 146.3528125 2.359375 145.625 C1.71452148 144.97789062 1.06966797 144.33078125 0.40527344 143.6640625 C-1 142 -1 142 -1 140 C-1.82757813 139.6596875 -1.82757813 139.6596875 -2.671875 139.3125 C-5.68692417 137.61274074 -7.81230369 135.45195184 -10.25 133 C-11.58804688 131.6696875 -11.58804688 131.6696875 -12.953125 130.3125 C-15 128 -15 128 -15 126 C-15.84864372 125.63687714 -15.84864372 125.63687714 -16.71443176 125.26641846 C-19.45184247 123.74963704 -21.34017154 121.93611114 -23.5690918 119.73730469 C-24.46649582 118.85588806 -25.36389984 117.97447144 -26.28849792 117.06634521 C-27.25921636 116.10200289 -28.22944493 115.13716725 -29.19921875 114.171875 C-30.19994341 113.18012157 -31.20074309 112.18844383 -32.20161438 111.19683838 C-34.29577131 109.11914946 -36.38551341 107.03712576 -38.47290039 104.95263672 C-41.14443295 102.28649278 -43.83174842 99.63688678 -46.52330303 96.99097824 C-48.59500496 94.94905735 -50.65532472 92.89593614 -52.71268654 90.83957672 C-53.69855976 89.85790191 -54.68854364 88.88033703 -55.68271446 87.90706635 C-57.07331251 86.54340417 -58.44660098 85.16215853 -59.8190918 83.78027344 C-60.60422653 83.00020935 -61.38936127 82.22014526 -62.19828796 81.41644287 C-64.3106079 78.58341497 -64.69220104 76.48328542 -65 73 C-65.66 73 -66.32 73 -67 73 C-67 71.02 -67 69.04 -67 67 C-66.34 67 -65.68 67 -65 67 C-65 65.35 -65 63.7 -65 62 C-63.515 61.505 -63.515 61.505 -62 61 C-61.87293671 60.42719299 -61.74587341 59.85438599 -61.61495972 59.26422119 C-60.69840074 55.8895412 -58.61517338 54.23340994 -56.16064453 51.77246094 C-55.65813171 51.26469116 -55.1556189 50.75692139 -54.63787842 50.23376465 C-52.97698522 48.55968148 -51.30537445 46.89679415 -49.6328125 45.234375 C-48.47513606 44.07467786 -47.31790529 42.91453569 -46.16110229 41.75396729 C-43.73643805 39.32488131 -41.30643282 36.90130204 -38.87255859 34.48144531 C-35.74944934 31.37544675 -32.64002561 28.2561499 -29.53445625 25.13262558 C-27.14815175 22.73549557 -24.75476661 20.34553847 -22.35915756 17.95771027 C-21.20946712 16.81002425 -20.06200981 15.66009678 -18.9168129 14.50792694 C-17.31772514 12.90124306 -15.70937614 11.30445365 -14.09814453 9.70996094 C-13.18404816 8.79825134 -12.26995178 7.88654175 -11.32815552 6.94720459 C-9 5 -9 5 -6 5 C-5.67 4.01 -5.34 3.02 -5 2 C-3.35 2 -1.7 2 0 2 C0 1.34 0 0.68 0 0 Z " fill="#FF1414" transform="translate(127,28)"/>
<path d="M0 0 C6.27 0 12.54 0 19 0 C21.38865196 12.96696777 23.27334578 25.92676089 25 39 C27.31 26.13 29.62 13.26 32 0 C37.61 0 43.22 0 49 0 C50.31855357 5.27421428 51.44526109 10.23322792 52.2890625 15.5625 C52.39721283 16.23925781 52.50536316 16.91601562 52.61679077 17.61328125 C52.95615816 19.7416792 53.29066774 21.87080596 53.625 24 C53.85644761 25.45708263 54.08821572 26.91411439 54.3203125 28.37109375 C54.8839072 31.91348321 55.44315283 35.45654283 56 39 C56.11069824 38.28046143 56.22139648 37.56092285 56.33544922 36.81958008 C58.22363281 24.54638672 60.11181641 12.27319336 62 0 C68.27 0 74.54 0 81 0 C80.40759515 5.33164364 79.84334576 10.28340034 78.80078125 15.48193359 C78.56383545 16.67281586 78.32688965 17.86369812 78.08276367 19.09066772 C77.82857666 20.34723175 77.57438965 21.60379578 77.3125 22.8984375 C77.04700043 24.22354593 76.7817874 25.5487118 76.5168457 26.87393188 C75.96446081 29.63274844 75.4095196 32.39103345 74.85253906 35.14892578 C74.1390705 38.68209901 73.4307441 42.21627869 72.72413635 45.7508297 C72.17836042 48.47916583 71.63058202 51.20709668 71.0821228 53.93489456 C70.69305862 55.8707792 70.30513916 57.80689379 69.91723633 59.74301147 C69.68029053 60.91498077 69.44334473 62.08695007 69.19921875 63.29443359 C68.99127686 64.32651947 68.78333496 65.35860535 68.5690918 66.42196655 C68 69 68 69 67 72 C60.73 72 54.46 72 48 72 C47.401875 69.091875 46.80375 66.18375 46.1875 63.1875 C46.00598389 62.31633545 45.82446777 61.4451709 45.63745117 60.54760742 C43.78244075 51.39217118 42.46257665 42.26298544 41 33 C39.02 45.87 37.04 58.74 35 72 C28.73 72 22.46 72 16 72 C12.39577252 59.08776757 9.46462991 46.04984214 6.57128906 32.96191406 C5.74241457 29.21571674 4.90666033 25.47109766 4.0703125 21.7265625 C3.54125858 19.34384057 3.0125981 16.96103125 2.484375 14.578125 C2.23443787 13.45948059 1.98450073 12.34083618 1.72698975 11.18829346 C1.49965149 10.15581482 1.27231323 9.12333618 1.03808594 8.05957031 C0.83697205 7.15217102 0.63585815 6.24477173 0.4286499 5.30987549 C0 3 0 3 0 0 Z " fill="#000000" transform="translate(193,194)"/>
<path d="M0 0 C6.6 0 13.2 0 20 0 C20.33 8.58 20.66 17.16 21 26 C23.97 17.42 26.94 8.84 30 0 C36.93 0 43.86 0 51 0 C49.55319031 4.34042907 48.07251101 8.17669979 46.14453125 12.28125 C45.60505859 13.45300781 45.06558594 14.62476563 44.50976562 15.83203125 C43.66106016 17.67208176 42.80800872 19.50949627 41.94165039 21.34130859 C41.09931143 23.12719132 40.27790642 24.92290034 39.45703125 26.71875 C38.96178955 27.78029297 38.46654785 28.84183594 37.95629883 29.93554688 C36.07667606 35.95878533 38.42924602 40.35902219 41.125 45.7890625 C41.43195801 46.41477142 41.73891602 47.04048035 42.05517578 47.68515015 C43.02946813 49.66880961 44.01397048 51.64715213 45 53.625 C45.98462471 55.61062772 46.96692633 57.5973236 47.94482422 59.58627319 C48.83059667 61.38632673 49.72370156 63.18276661 50.6171875 64.97900391 C52 68 52 68 53 72 C46.07 72 39.14 72 32 72 C26.555 57.645 26.555 57.645 21 43 C20.67 52.57 20.34 62.14 20 72 C13.4 72 6.8 72 0 72 C0 48.24 0 24.48 0 0 Z " fill="#000000" transform="translate(280,194)"/>
<path d="M0 0 C6.27 0 12.54 0 19 0 C19 25.41 19 50.82 19 77 C12.73 77 6.46 77 0 77 C-0.33 75.35 -0.66 73.7 -1 72 C-1.61875 72.804375 -2.2375 73.60875 -2.875 74.4375 C-4.99311767 76.99170072 -5.73383079 77.84552736 -8.953125 78.23828125 C-14.48803975 78.41713054 -17.77403489 77.93113033 -22 74 C-26.49375664 66.84167613 -27.20670369 60.60915519 -27.25 52.3125 C-27.2809375 50.8594043 -27.2809375 50.8594043 -27.3125 49.37695312 C-27.35873996 40.8283397 -25.74711366 33.81527033 -19.8046875 27.35546875 C-16.48499595 24.86210735 -13.0495978 24.60156015 -9 25 C-5.59255449 26.30102465 -3.56327022 27.43672978 -1 30 C-0.67 20.1 -0.34 10.2 0 0 Z " fill="#FBFBFB" transform="translate(281,453)"/>
<path d="M0 0 C6.03290365 3.39530666 9.31010256 7.86955128 12.0625 14.125 C13.60298691 23.67601884 14.07692065 33.57809196 8.6875 42 C4.15995925 47.07576071 -0.46721157 50.57657515 -7.36328125 51.3359375 C-15.37243374 51.43185549 -20.92411523 50.86738932 -27.0234375 45.4921875 C-32.66903839 39.57119144 -34.44203488 33.04921025 -34.6875 25 C-34.46624841 17.09528418 -32.46782153 10.13065263 -27.3125 4 C-18.92458468 -2.26546711 -9.89424452 -4.46740131 0 0 Z " fill="#FAFAFA" transform="translate(342.3125,480)"/>
<path d="M0 0 C4.59505731 1.70978877 6.13515195 4.4685372 8.16418457 8.68554688 C9.60815447 12.68403809 9.49215278 16.54268878 9.390625 20.75 C9.38496521 21.64871826 9.37930542 22.54743652 9.37347412 23.47338867 C9.35125919 26.31615708 9.30109249 29.15761895 9.25 32 C9.22991569 33.93878375 9.21166832 35.87758746 9.1953125 37.81640625 C9.15486117 42.54516705 9.07654632 47.27113833 9 52 C2.73 52 -3.54 52 -10 52 C-10.33 41.44 -10.66 30.88 -11 20 C-12.65 20.33 -14.3 20.66 -16 21 C-16.33 31.23 -16.66 41.46 -17 52 C-23.27 52 -29.54 52 -36 52 C-36 35.17 -36 18.34 -36 1 C-29.73 1 -23.46 1 -17 1 C-16.67 2.98 -16.34 4.96 -16 7 C-15.51789063 6.57847656 -15.03578125 6.15695312 -14.5390625 5.72265625 C-13.90742188 5.17480469 -13.27578125 4.62695312 -12.625 4.0625 C-11.68527344 3.24458984 -11.68527344 3.24458984 -10.7265625 2.41015625 C-7.216027 -0.45704583 -4.4689826 -0.30298187 0 0 Z " fill="#FBFBFB" transform="translate(399,478)"/>
<path d="M0 0 C6.93 0 13.86 0 21 0 C22.98 6.6 24.96 13.2 27 20 C29.31 13.4 31.62 6.8 34 0 C40.6 0 47.2 0 54 0 C52.1123842 5.66284739 50.41351507 10.51306105 47.8984375 15.7890625 C39.079564 34.98677514 36.110672 50.88939439 37 72 C30.73 72 24.46 72 18 72 C18.18755859 69.21369141 18.18755859 69.21369141 18.37890625 66.37109375 C19.18131548 42.83933933 11.91614255 25.06351158 1.54467773 4.18579102 C0 1 0 1 0 0 Z " fill="#FF1414" transform="translate(384,194)"/>
<path d="M0 0 C6.27 0 12.54 0 19 0 C19.33 11.55 19.66 23.1 20 35 C21.65 35 23.3 35 25 35 C25.33 23.45 25.66 11.9 26 0 C32.27 0 38.54 0 45 0 C45.06911483 4.99930575 45.1287727 9.99693391 45.16479492 14.99633789 C45.17982126 16.69463742 45.20024823 18.39289855 45.22631836 20.09106445 C45.26297449 22.54127518 45.27978789 24.99097 45.29296875 27.44140625 C45.30845261 28.19273331 45.32393646 28.94406036 45.33988953 29.71815491 C45.3418681 36.00698206 43.60840257 40.23354758 40.4375 45.6875 C35.04414898 50.80426892 28.67171084 52.2542339 21.375 52.5 C14.91205972 52.27189623 10.28135735 50.9952903 5.4765625 46.609375 C0.2962987 40.92006794 -0.29618753 34.93167655 -0.1953125 27.5390625 C-0.1924826 26.74849457 -0.18965271 25.95792664 -0.18673706 25.1434021 C-0.17560955 22.63710916 -0.15051926 20.13118355 -0.125 17.625 C-0.11496058 15.91797394 -0.10583641 14.21094223 -0.09765625 12.50390625 C-0.0774025 8.33568472 -0.03824082 4.16824988 0 0 Z " fill="#FAFAFA" transform="translate(90,479)"/>
<path d="M0 0 C7.72526774 6.5538132 11.27814103 15.66972121 12.6875 25.5 C13.65455202 38.13883263 12.46351108 51.03845932 4.6875 61.5 C-0.16002236 66.72811295 -4.5842613 70.10658723 -11.84765625 70.7109375 C-18.07824135 70.93376448 -22.64370148 70.0670031 -28.3125 67.5 C-27.6525 65.85 -26.9925 64.2 -26.3125 62.5 C-25.6525 62.5 -24.9925 62.5 -24.3125 62.5 C-24.3125 61.84 -24.3125 61.18 -24.3125 60.5 C-23.6525 60.5 -22.9925 60.5 -22.3125 60.5 C-21.9825 59.51 -21.6525 58.52 -21.3125 57.5 C-20.6525 57.5 -19.9925 57.5 -19.3125 57.5 C-18.9825 56.51 -18.6525 55.52 -18.3125 54.5 C-17.6525 54.5 -16.9925 54.5 -16.3125 54.5 C-16.83650391 53.81164062 -16.83650391 53.81164062 -17.37109375 53.109375 C-18.05365234 52.18898438 -18.05365234 52.18898438 -18.75 51.25 C-19.20246094 50.64671875 -19.65492188 50.0434375 -20.12109375 49.421875 C-23.06708612 44.66965124 -22.53099091 39.15380906 -22.5625 33.75 C-22.583125 32.88117188 -22.60375 32.01234375 -22.625 31.1171875 C-22.66042178 25.21946094 -21.84388703 20.85276588 -19.3125 15.5 C-16.61623472 13.70248981 -15.35851664 13.31540883 -12.1875 13.875 C-8.6720091 16.92175878 -7.50059359 21.52004735 -7.07226562 26.02880859 C-7.01881215 28.69207848 -7.0495325 31.33735172 -7.125 34 C-7.14530273 35.37671875 -7.14530273 35.37671875 -7.16601562 36.78125 C-7.20101903 39.02146803 -7.25011131 41.26040594 -7.3125 43.5 C-6.6525 43.5 -5.9925 43.5 -5.3125 43.5 C-4.9825 42.51 -4.6525 41.52 -4.3125 40.5 C-3.6525 40.5 -2.9925 40.5 -2.3125 40.5 C-1.9825 39.51 -1.6525 38.52 -1.3125 37.5 C-0.6525 37.5 0.0075 37.5 0.6875 37.5 C1.0175 36.51 1.3475 35.52 1.6875 34.5 C2.3475 34.5 3.0075 34.5 3.6875 34.5 C3.6875 33.84 3.6875 33.18 3.6875 32.5 C4.3475 32.5 5.0075 32.5 5.6875 32.5 C5.6875 30.85 5.6875 29.2 5.6875 27.5 C5.0275 27.5 4.3675 27.5 3.6875 27.5 C3.6875 26.84 3.6875 26.18 3.6875 25.5 C3.10774414 25.24476563 2.52798828 24.98953125 1.93066406 24.7265625 C-0.54265312 23.37415223 -2.20852109 21.86267476 -4.203125 19.875 C-4.91210938 19.16859375 -5.62109375 18.4621875 -6.3515625 17.734375 C-7.08117187 16.99703125 -7.81078125 16.2596875 -8.5625 15.5 C-9.68011719 14.39398438 -9.68011719 14.39398438 -10.8203125 13.265625 C-11.52414063 12.55921875 -12.22796875 11.8528125 -12.953125 11.125 C-13.59797852 10.47789062 -14.24283203 9.83078125 -14.90722656 9.1640625 C-16.3125 7.5 -16.3125 7.5 -16.3125 5.5 C-17.17875 5.12875 -17.17875 5.12875 -18.0625 4.75 C-20.64189979 3.31700012 -22.37371592 1.71575324 -24.3125 -0.5 C-24.3125 -1.16 -24.3125 -1.82 -24.3125 -2.5 C-15.71004631 -5.03842896 -7.7058955 -5.17647942 0 0 Z " fill="#010000" transform="translate(176.3125,196.5)"/>
<path d="M0 0 C6.27 0 12.54 0 19 0 C19 18.15 19 36.3 19 55 C23.95 55 28.9 55 34 55 C34 60.61 34 66.22 34 72 C22.78 72 11.56 72 0 72 C0 48.24 0 24.48 0 0 Z " fill="#FF1414" transform="translate(94,194)"/>
<path d="M0 0 C6.27 0 12.54 0 19 0 C19.09065547 7.6847946 19.16391937 15.36938771 19.20724869 23.05458832 C19.22805315 26.62383519 19.25623769 30.19269474 19.30175781 33.76171875 C19.345474 37.21120466 19.36919071 40.66031992 19.37950897 44.11006165 C19.39041005 46.05539182 19.42159466 48.00057452 19.45318604 49.94567871 C19.45498969 57.11339537 18.98613493 61.96061937 15 68 C9.5250458 72.35761661 5.51511944 73.15365855 -1.375 73.1875 C-2.68210937 73.20167969 -3.98921875 73.21585938 -5.3359375 73.23046875 C-9 73 -9 73 -14 71 C-14 64.4 -14 57.8 -14 51 C-12.35 51.99 -10.7 52.98 -9 54 C-5.79083829 54.25136033 -5.79083829 54.25136033 -3 54 C-1.18181631 50.8745244 -0.73568688 48.55533437 -0.68115234 44.95605469 C-0.66128265 43.95531921 -0.64141296 42.95458374 -0.62094116 41.92352295 C-0.60361435 40.31395721 -0.60361435 40.31395721 -0.5859375 38.671875 C-0.56657135 37.56773254 -0.5472052 36.46359009 -0.5272522 35.32598877 C-0.46749108 31.80073767 -0.42108436 28.27545385 -0.375 24.75 C-0.33681708 22.35936079 -0.29776517 19.96873529 -0.2578125 17.578125 C-0.16179216 11.7188614 -0.07774785 5.8595334 0 0 Z " fill="#FDFDFD" transform="translate(60,458)"/>
<path d="M0 0 C-1.49170266 4.9723422 -3.60457417 9.41845739 -6 14 C-6.721875 13.505 -7.44375 13.01 -8.1875 12.5 C-11.14848659 10.92080715 -12.71253029 10.71821688 -16 11 C-16 11.99 -16 12.98 -16 14 C-15.10796875 14.43570312 -14.2159375 14.87140625 -13.296875 15.3203125 C-12.12640625 15.91585938 -10.9559375 16.51140625 -9.75 17.125 C-8.58984375 17.70507812 -7.4296875 18.28515625 -6.234375 18.8828125 C-2.11849108 21.57702637 0.36107222 24.4354761 1.56640625 29.2734375 C1.5552407 35.28050431 0.06537279 39.50776307 -4 44 C-10.63120523 49.1214219 -17.88654867 49.80172444 -26 49 C-30.48733985 47.71179767 -34.66422273 46.33577727 -38 43 C-35.69 38.71 -33.38 34.42 -31 30 C-29.948125 30.66 -28.89625 31.32 -27.8125 32 C-24.73376063 33.7771585 -22.61403672 34.43806506 -19 34 C-19 33.01 -19 32.02 -19 31 C-20.33804688 30.36384766 -20.33804688 30.36384766 -21.703125 29.71484375 C-33.77875716 23.66372851 -33.77875716 23.66372851 -36 17 C-36.81698517 11.28110381 -36.06877571 7.58854024 -32.73828125 2.83203125 C-23.60860595 -6.79003103 -10.94644767 -5.47322383 0 0 Z " fill="#F8F8F8" transform="translate(180,482)"/>
<path d="M0 0 C5.86301635 2.23675768 10.0345344 7.82474245 13.9921875 12.4765625 C16.51270224 15.32121253 19.15625461 18.02079236 21.83984375 20.7109375 C22.3203418 21.1958667 22.80083984 21.6807959 23.29589844 22.18041992 C25.91281227 24.80732969 25.91281227 24.80732969 29.02734375 26.7734375 C29.02734375 27.4334375 29.02734375 28.0934375 29.02734375 28.7734375 C29.68734375 28.7734375 30.34734375 28.7734375 31.02734375 28.7734375 C31.02734375 30.4234375 31.02734375 32.0734375 31.02734375 33.7734375 C30.36734375 33.7734375 29.70734375 33.7734375 29.02734375 33.7734375 C29.02734375 34.4334375 29.02734375 35.0934375 29.02734375 35.7734375 C27.36519107 37.11239382 25.69770768 38.44473892 24.02734375 39.7734375 C23.32609375 40.6603125 22.62484375 41.5471875 21.90234375 42.4609375 C20.02734375 44.7734375 20.02734375 44.7734375 17.02734375 45.7734375 C17.03781738 45.17917969 17.04829102 44.58492187 17.05908203 43.97265625 C17.10105506 41.23962761 17.12679955 38.50666713 17.15234375 35.7734375 C17.16910156 34.83886719 17.18585938 33.90429688 17.203125 32.94140625 C17.2434052 27.18133787 16.6815103 22.2960093 15.02734375 16.7734375 C11.74038142 15.97390612 10.31711183 15.67684814 7.02734375 16.7734375 C4.07404561 22.86721465 3.56142302 28.13305948 3.65234375 34.8359375 C3.64074219 35.69509766 3.62914062 36.55425781 3.6171875 37.43945312 C3.64264634 42.99372285 4.49675618 46.82699934 7.02734375 51.7734375 C7.41921875 52.5778125 7.81109375 53.3821875 8.21484375 54.2109375 C8.48296875 54.7265625 8.75109375 55.2421875 9.02734375 55.7734375 C7.82078125 56.7015625 7.82078125 56.7015625 6.58984375 57.6484375 C3.98859856 59.51507791 3.98859856 59.51507791 3.02734375 61.7734375 C2.36734375 61.7734375 1.70734375 61.7734375 1.02734375 61.7734375 C1.02734375 62.4334375 1.02734375 63.0934375 1.02734375 63.7734375 C-0.22265625 65.4609375 -0.22265625 65.4609375 -1.97265625 66.7734375 C-6.19414943 66.25004099 -7.92871928 64.17759065 -10.515625 61.0078125 C-17.69247341 50.00202889 -18.2461346 36.06551259 -16.51171875 23.41015625 C-14.68049611 15.105023 -11.18352612 7.42456188 -4.84765625 1.5859375 C-1.97265625 -0.2265625 -1.97265625 -0.2265625 0 0 Z " fill="#FF1414" transform="translate(150.97265625,195.2265625)"/>
<path d="M0 0 C6.27 0 12.54 0 19 0 C19 4.95 19 9.9 19 15 C20.98 15 22.96 15 25 15 C25 19.95 25 24.9 25 30 C23.02 30 21.04 30 19 30 C19 41.88 19 53.76 19 66 C12.73 66 6.46 66 0 66 C0 54.12 0 42.24 0 30 C-1.65 30 -3.3 30 -5 30 C-5 25.05 -5 20.1 -5 15 C-3.35 15 -1.7 15 0 15 C0 10.05 0 5.1 0 0 Z " fill="#FCFCFC" transform="translate(451,464)"/>
<path d="M0 0 C6.27 0 12.54 0 19 0 C19 4.95 19 9.9 19 15 C20.98 15 22.96 15 25 15 C25 19.95 25 24.9 25 30 C23.02 30 21.04 30 19 30 C19 41.88 19 53.76 19 66 C12.73 66 6.46 66 0 66 C0 54.12 0 42.24 0 30 C-1.65 30 -3.3 30 -5 30 C-5 25.05 -5 20.1 -5 15 C-3.35 15 -1.7 15 0 15 C0 10.05 0 5.1 0 0 Z " fill="#FDFDFD" transform="translate(193,464)"/>
<path d="M0 0 C6.27 0 12.54 0 19 0 C19.11289387 7.60622462 18.68097931 15.05140576 18 22.625 C17.85691406 24.27435547 17.85691406 24.27435547 17.7109375 25.95703125 C17.47777884 28.63835579 17.23943097 31.31922827 17 34 C12.38 34 7.76 34 3 34 C1.76836482 31.53672965 1.69348875 29.5838986 1.46484375 26.8359375 C1.37783203 25.79566406 1.29082031 24.75539063 1.20117188 23.68359375 C1.11416016 22.59175781 1.02714844 21.49992187 0.9375 20.375 C0.84662109 19.30636719 0.75574219 18.23773438 0.66210938 17.13671875 C0.19016647 11.36695065 0 5.8181605 0 0 Z " fill="#F8F8F8" transform="translate(418,458)"/>
<path d="M0 0 C4.13478214 3.54409898 8.09563669 6.94097313 11.9375 10.75 C12.70964844 11.50796875 13.48179687 12.2659375 14.27734375 13.046875 C16 15 16 15 16 17 C16.55171875 17.226875 17.1034375 17.45375 17.671875 17.6875 C20.68692417 19.38725926 22.81230369 21.54804816 25.25 24 C26.14203125 24.886875 27.0340625 25.77375 27.953125 26.6875 C30 29 30 29 30 31 C30.66 31.33 31.32 31.66 32 32 C21.44 32 10.88 32 0 32 C0 21.44 0 10.88 0 0 Z " fill="#000000" transform="translate(341,234)"/>
<path d="M0 0 C3.27981751 2.06771104 4.84746007 3.77119011 7 7 C7.4606067 11.97455239 7.16781812 15.06753613 4 19 C1.07104403 21.35943675 -0.74681503 21.96835188 -4.5 22.4375 C-8.61647408 21.92294074 -10.13461399 20.94725418 -13 18 C-15.28853994 14.73065722 -15.47162218 11.9301848 -15 8 C-11.31874461 1.39912827 -7.65986988 -1.24173672 0 0 Z " fill="#F7F7F7" transform="translate(498,509)"/>
<path d="M0 0 C8.58 0 17.16 0 26 0 C22.46166746 4.12805463 19.10127913 8.02586805 15.29296875 11.83984375 C14.45958984 12.67451172 13.62621094 13.50917969 12.76757812 14.36914062 C11.91615234 15.21669922 11.06472656 16.06425781 10.1875 16.9375 C9.31673828 17.81212891 8.44597656 18.68675781 7.54882812 19.58789062 C6.30842773 20.82635742 6.30842773 20.82635742 5.04296875 22.08984375 C4.29039795 22.84128662 3.53782715 23.59272949 2.76245117 24.36694336 C1 26 1 26 0 26 C0 17.42 0 8.84 0 0 Z " fill="#000000" transform="translate(341,194)"/>
<path d="M0 0 C1.8125 0.1875 1.8125 0.1875 4 1 C8.14401876 6.53206388 7.7901959 12.36235445 7 19 C5.93516944 21.5721881 4.89864274 22.9233595 3 25 C1.125 24.6875 1.125 24.6875 -1 24 C-3.55305926 20.17041112 -3.33112701 16.99945272 -3.3125 12.5625 C-3.32861328 11.79873047 -3.34472656 11.03496094 -3.36132812 10.24804688 C-3.3644348 6.67847792 -3.34775588 4.58018912 -1.48046875 1.46484375 C-0.74763672 0.73974609 -0.74763672 0.73974609 0 0 Z " fill="#0B0B0B" transform="translate(330,492)"/>
<path d="M0 0 C1.9375 0.875 1.9375 0.875 3.9375 3.875 C4.23828125 6.6171875 4.23828125 6.6171875 4.25 9.75 C4.26675781 10.77867187 4.28351563 11.80734375 4.30078125 12.8671875 C3.89457915 16.2303662 2.86187719 18.1229883 0.9375 20.875 C-0.9375 20.625 -0.9375 20.625 -3.0625 19.875 C-5.37221314 16.47931647 -5.36125469 13.33987526 -5.375 9.3125 C-5.39175781 8.17683594 -5.40851563 7.04117187 -5.42578125 5.87109375 C-5.0625 2.875 -5.0625 2.875 -3.671875 0.96484375 C-2.0625 -0.125 -2.0625 -0.125 0 0 Z " fill="#0B0B0B" transform="translate(278.0625,494.125)"/>
<path d="M0 0 C0 3.96 0 7.92 0 12 C-1.32 11.34 -2.64 10.68 -4 10 C-4 9.34 -4 8.68 -4 8 C-4.66 8 -5.32 8 -6 8 C-5.57004265 4.99029853 -3.66008917 0 0 0 Z " fill="#000000" transform="translate(341,221)"/>
</svg>
